<?xml version="1.0"?>
<!--
 
 Licensed to the Apache Software Foundation (ASF) under one
 or more contributor license agreements.  See the NOTICE file
 distributed with this work for additional information
 regarding copyright ownership.  The ASF licenses this file
 to you under the Apache License, Version 2.0 (the
 "License"); you may not use this file except in compliance
 with the License.  You may obtain a copy of the License at
 
   http://www.apache.org/licenses/LICENSE-2.0
 
 Unless required by applicable law or agreed to in writing,
 software distributed under the License is distributed on an
 "AS IS" BASIS, WITHOUT WARRANTIES OR CONDITIONS OF ANY
 KIND, either express or implied.  See the License for the
 specific language governing permissions and limitations
 under the License.
 
-->
<!DOCTYPE svg PUBLIC "-//W3C//DTD SVG 1.1//EN" "http://www.w3.org/Graphics/SVG/1.1/DTD/svg11.dtd">
<svg xmlns="http://www.w3.org/2000/svg" xmlns:xl="http://www.w3.org/1999/xlink" version="1.1" viewBox="-11 -10 318 313" width="318pt" height="313pt"><metadata xmlns:dc="http://purl.org/dc/elements/1.1/"><dc:date>2012-05-31 06:19Z</dc:date><!-- Produced by OmniGraffle Professional 5.3.6 --></metadata><defs><radialGradient cx="0" cy="0" r="1" id="Gradient" gradientUnits="userSpaceOnUse"><stop offset="0" stop-color="white"/><stop offset=".5" stop-color="#b5d0ea"/><stop offset="1" stop-color="#aaa"/></radialGradient><radialGradient id="Obj_Gradient" xl:href="#Gradient" gradientTransform="translate(209.35501 142.5) scale(145.18695)"/><linearGradient x1="0" x2="1" id="Gradient_2" gradientUnits="userSpaceOnUse"><stop offset="0" stop-color="white"/><stop offset="1" stop-color="#2824aa"/></linearGradient><linearGradient id="Obj_Gradient_2" xl:href="#Gradient_2" gradientTransform="translate(221.85501 152) rotate(90) scale(69)"/><linearGradient x1="0" x2="1" id="Gradient_3" gradientUnits="userSpaceOnUse"><stop offset="0" stop-color="white"/><stop offset="1" stop-color="#0caa25"/></linearGradient><linearGradient id="Obj_Gradient_3" xl:href="#Gradient_3" gradientTransform="translate(221.85452 168.5) rotate(90) scale(36)"/><linearGradient x1="0" x2="1" id="Gradient_4" gradientUnits="userSpaceOnUse"><stop offset="0" stop-color="white"/><stop offset="1" stop-color="#6923aa"/></linearGradient><linearGradient id="Obj_Gradient_4" xl:href="#Gradient_4" gradientTransform="translate(71.35501 115) rotate(90) scale(24)"/><linearGradient id="Obj_Gradient_5" xl:href="#Gradient_2" gradientTransform="translate(204.35501 66) rotate(90) scale(69.000007)"/><linearGradient x1="0" x2="1" id="Gradient_5" gradientUnits="userSpaceOnUse"><stop offset="0" stop-color="white"/><stop offset="1" stop-color="#aa172d"/></linearGradient><linearGradient id="Obj_Gradient_6" xl:href="#Gradient_5" gradientTransform="translate(204.35452 84) rotate(90) scale(36)"/><marker orient="auto" overflow="visible" markerUnits="strokeWidth" id="FilledArrow_Marker" viewBox="-1 -3 6 6" markerWidth="6" markerHeight="6" color="black"><g><path d="M 3.7333333 0 L 0 -1.4 L 0 1.4 Z" fill="currentColor" stroke="currentColor" stroke-width="1"/></g></marker><marker orient="auto" overflow="visible" markerUnits="strokeWidth" id="Arrow_Marker" viewBox="-1 -4 10 8" markerWidth="10" markerHeight="8" color="black"><g><path d="M 8 0 L 0 -3 L 0 3 Z" fill="none" stroke="currentColor" stroke-width="1"/></g></marker></defs><g stroke="none" stroke-opacity="1" stroke-dasharray="none" fill="none" fill-opacity="1"><title>Canvas 1</title><g><title>Layer 1</title><rect x="9" y="6" width="278" height="273" fill="white"/><rect x="9" y="6" width="278" height="273" stroke="black" stroke-linecap="round" stroke-linejoin="round" stroke-width="1"/><path d="M 155.38904 155.98122 C 131.79251 142.5 141.20221 29.010353 178.84393 48.375 C 182.33626 10.627106 226.1085 16.754013 225.82236 48.375 C 253.26889 7.931366 288.34393 88.575165 264.8175 129.01878 C 293.04803 148.62691 264.46124 254.27281 241.29251 236.625 C 239.43831 266.03967 198.01958 276.33319 194.38417 236.625 C 170.93073 279.03143 122.02657 213.82918 155.38904 155.98122 Z" fill="url(#Obj_Gradient)"/><path d="M 155.38904 155.98122 C 131.79251 142.5 141.20221 29.010353 178.84393 48.375 C 182.33626 10.627106 226.1085 16.754013 225.82236 48.375 C 253.26889 7.931366 288.34393 88.575165 264.8175 129.01878 C 293.04803 148.62691 264.46124 254.27281 241.29251 236.625 C 239.43831 266.03967 198.01958 276.33319 194.38417 236.625 C 170.93073 279.03143 122.02657 213.82918 155.38904 155.98122 Z" stroke="black" stroke-linecap="round" stroke-linejoin="round" stroke-width="1"/><rect x="188.35501" y="152" width="67" height="69" fill="url(#Obj_Gradient_2)"/><rect x="188.35501" y="152" width="67" height="69" stroke="black" stroke-linecap="round" stroke-linejoin="round" stroke-width="1"/><path d="M 201.52402 186.5 L 211.68927 168.5 L 232.01978 168.5 L 242.18503 186.5 L 232.01978 204.5 L 211.68927 204.5 Z" fill="url(#Obj_Gradient_3)"/><path d="M 201.52402 186.5 L 211.68927 168.5 L 232.01978 168.5 L 242.18503 186.5 L 232.01978 204.5 L 211.68927 204.5 Z" stroke="black" stroke-linecap="round" stroke-linejoin="round" stroke-width="1"/><path d="M 60.85501 115 L 81.85501 115 C 84.33901 115 86.35501 120.376 86.35501 127 C 86.35501 133.62399 84.33901 139 81.85501 139 L 60.85501 139 C 58.37101 139 56.35501 133.62399 56.35501 127 C 56.35501 120.376 58.37101 115 60.85501 115" fill="url(#Obj_Gradient_4)"/><path d="M 60.85501 115 L 81.85501 115 C 84.33901 115 86.35501 120.376 86.35501 127 C 86.35501 133.62399 84.33901 139 81.85501 139 L 60.85501 139 C 58.37101 139 56.35501 133.62399 56.35501 127 C 56.35501 120.376 58.37101 115 60.85501 115" stroke="black" stroke-linecap="round" stroke-linejoin="round" stroke-width="1"/><rect x="170.85501" y="66" width="67" height="69" fill="url(#Obj_Gradient_5)"/><rect x="170.85501" y="66" width="67" height="69" stroke="black" stroke-linecap="round" stroke-linejoin="round" stroke-width="1"/><path d="M 184.02402 102 L 194.18927 84 L 214.51978 84 L 224.68503 102 L 214.51978 120 L 194.18927 120 Z" fill="url(#Obj_Gradient_6)"/><path d="M 184.02402 102 L 194.18927 84 L 214.51978 84 L 224.68503 102 L 214.51978 120 L 194.18927 120 Z" stroke="black" stroke-linecap="round" stroke-linejoin="round" stroke-width="1"/><path d="M 83.35501 143 C 101.01991 166.33099 116.23704 204.83237 136.35501 213 C 152.19005 219.42882 171.06885 207.06767 189.39609 198.1017" marker-end="url(#FilledArrow_Marker)" stroke="black" stroke-linecap="round" stroke-linejoin="round" stroke-width="3"/><path d="M 231.38086 168.05576 C 236.03844 159.03807 247.59447 149.85422 245.35498 141 C 243.66136 134.304 234.07715 127.79349 225.55383 121.2586" marker-end="url(#Arrow_Marker)" stroke="black" stroke-linecap="round" stroke-linejoin="round" stroke-width="1"/></g></g></svg>
